0
SECTION
2
HEADER
9
$INSUNITS
70
4
0
ENDSEC
0
SECTION
2
TABLES
0
TABLE
2
LTYPE
0
LTYPE
72
65
70
64
2
CONTINUOUS
3
______
73
0
40
0
0
ENDTAB
0
TABLE
2
LAYER
0
ENDTAB
0
ENDSEC
0
SECTION
2
ENTITIES
0
LINE
8
0
10
-8.1813506
20
-9.750154
11
9.750154
21
-8.1813506
0
LINE
8
0
10
9.750154
20
-8.1813506
11
8.1813506
21
9.750154
0
LINE
8
0
10
8.1813506
20
9.750154
11
-9.750154
21
8.1813506
0
LINE
8
0
10
-9.750154
20
8.1813506
11
-8.1813506
21
-9.750154
0
LINE
8
0
10
-9.8373097
20
9.1775453
11
8.0941949
21
10.7463487
0
LINE
8
0
10
8.0941949
20
10.7463487
11
6.5253915
21
28.6778533
0
LINE
8
0
10
6.5253915
20
28.6778533
11
-11.4061131
21
27.1090499
0
LINE
8
0
10
-11.4061131
20
27.1090499
11
-9.8373097
21
9.1775453
0
LINE
8
0
10
10.7463487
20
-8.0941949
11
28.6778533
21
-6.5253915
0
LINE
8
0
10
28.6778533
20
-6.5253915
11
27.1090499
21
11.4061131
0
LINE
8
0
10
27.1090499
20
11.4061131
11
9.1775453
21
9.8373097
0
LINE
8
0
10
9.1775453
20
9.8373097
11
10.7463487
21
-8.0941949
0
LINE
8
0
10
9.0903896
20
10.8335044
11
27.0218942
21
12.4023078
0
LINE
8
0
10
27.0218942
20
12.4023078
11
25.4530908
21
30.3338124
0
LINE
8
0
10
25.4530908
20
30.3338124
11
7.5215862
21
28.765009
0
LINE
8
0
10
7.5215862
20
28.765009
11
9.0903896
21
10.8335044
0
LINE
8
0
10
7.4344305
20
29.7612037
11
25.3659351
21
31.3300071
0
LINE
8
0
10
25.3659351
20
31.3300071
11
23.7971317
21
49.2615117
0
LINE
8
0
10
23.7971317
20
49.2615117
11
5.8656271
21
47.6927083
0
LINE
8
0
10
5.8656271
20
47.6927083
11
7.4344305
21
29.7612037
0
LINE
8
0
10
29.5111523
20
5.2926864
11
47.5111523
21
5.2926864
0
LINE
8
0
10
47.5111523
20
5.2926864
11
47.5111523
21
23.2926864
0
LINE
8
0
10
47.5111523
20
23.2926864
11
29.5111523
21
23.2926864
0
LINE
8
0
10
29.5111523
20
23.2926864
11
29.5111523
21
5.2926864
0
LINE
8
0
10
29.5111523
20
24.2926864
11
47.5111523
21
24.2926864
0
LINE
8
0
10
47.5111523
20
24.2926864
11
47.5111523
21
42.2926864
0
LINE
8
0
10
47.5111523
20
42.2926864
11
29.5111523
21
42.2926864
0
LINE
8
0
10
29.5111523
20
42.2926864
11
29.5111523
21
24.2926864
0
LINE
8
0
10
29.5111523
20
43.2926864
11
47.5111523
21
43.2926864
0
LINE
8
0
10
47.5111523
20
43.2926864
11
47.5111523
21
61.2926864
0
LINE
8
0
10
47.5111523
20
61.2926864
11
29.5111523
21
61.2926864
0
LINE
8
0
10
29.5111523
20
61.2926864
11
29.5111523
21
43.2926864
0
LINE
8
0
10
48.5111524
20
10.2926864
11
66.5111524
21
10.2926864
0
LINE
8
0
10
66.5111524
20
10.2926864
11
66.5111524
21
28.2926864
0
LINE
8
0
10
66.5111524
20
28.2926864
11
48.5111524
21
28.2926864
0
LINE
8
0
10
48.5111524
20
28.2926864
11
48.5111524
21
10.2926864
0
LINE
8
0
10
48.5111524
20
29.2926864
11
66.5111524
21
29.2926864
0
LINE
8
0
10
66.5111524
20
29.2926864
11
66.5111524
21
47.2926864
0
LINE
8
0
10
66.5111524
20
47.2926864
11
48.5111524
21
47.2926864
0
LINE
8
0
10
48.5111524
20
47.2926864
11
48.5111524
21
29.2926864
0
LINE
8
0
10
48.5111524
20
48.2926864
11
66.5111524
21
48.2926864
0
LINE
8
0
10
66.5111524
20
48.2926864
11
66.5111524
21
66.2926864
0
LINE
8
0
10
66.5111524
20
66.2926864
11
48.5111524
21
66.2926864
0
LINE
8
0
10
48.5111524
20
66.2926864
11
48.5111524
21
48.2926864
0
LINE
8
0
10
67.5111524
20
4.2926864
11
85.5111524
21
4.2926864
0
LINE
8
0
10
85.5111524
20
4.2926864
11
85.5111524
21
22.2926864
0
LINE
8
0
10
85.5111524
20
22.2926864
11
67.5111524
21
22.2926864
0
LINE
8
0
10
67.5111524
20
22.2926864
11
67.5111524
21
4.2926864
0
LINE
8
0
10
67.5111524
20
23.2926864
11
85.5111524
21
23.2926864
0
LINE
8
0
10
85.5111524
20
23.2926864
11
85.5111524
21
41.2926864
0
LINE
8
0
10
85.5111524
20
41.2926864
11
67.5111524
21
41.2926864
0
LINE
8
0
10
67.5111524
20
41.2926864
11
67.5111524
21
23.2926864
0
LINE
8
0
10
67.5111524
20
42.2926864
11
85.5111524
21
42.2926864
0
LINE
8
0
10
85.5111524
20
42.2926864
11
85.5111524
21
60.2926864
0
LINE
8
0
10
85.5111524
20
60.2926864
11
67.5111524
21
60.2926864
0
LINE
8
0
10
67.5111524
20
60.2926864
11
67.5111524
21
42.2926864
0
LINE
8
0
10
86.5111523
20
2.2926864
11
104.5111523
21
2.2926864
0
LINE
8
0
10
104.5111523
20
2.2926864
11
104.5111523
21
20.2926864
0
LINE
8
0
10
104.5111523
20
20.2926864
11
86.5111523
21
20.2926864
0
LINE
8
0
10
86.5111523
20
20.2926864
11
86.5111523
21
2.2926864
0
LINE
8
0
10
86.5111523
20
21.2926864
11
104.5111523
21
21.2926864
0
LINE
8
0
10
104.5111523
20
21.2926864
11
104.5111523
21
39.2926864
0
LINE
8
0
10
104.5111523
20
39.2926864
11
86.5111523
21
39.2926864
0
LINE
8
0
10
86.5111523
20
39.2926864
11
86.5111523
21
21.2926864
0
LINE
8
0
10
86.5111523
20
40.2926864
11
104.5111523
21
40.2926864
0
LINE
8
0
10
104.5111523
20
40.2926864
11
104.5111523
21
58.2926864
0
LINE
8
0
10
104.5111523
20
58.2926864
11
86.5111523
21
58.2926864
0
LINE
8
0
10
86.5111523
20
58.2926864
11
86.5111523
21
40.2926864
0
LINE
8
0
10
105.5111524
20
21.2926865
11
123.5111524
21
21.2926865
0
LINE
8
0
10
123.5111524
20
21.2926865
11
123.5111524
21
39.2926865
0
LINE
8
0
10
123.5111524
20
39.2926865
11
105.5111524
21
39.2926865
0
LINE
8
0
10
105.5111524
20
39.2926865
11
105.5111524
21
21.2926865
0
LINE
8
0
10
105.5111524
20
40.2926865
11
123.5111524
21
40.2926865
0
LINE
8
0
10
123.5111524
20
40.2926865
11
123.5111524
21
58.2926865
0
LINE
8
0
10
123.5111524
20
58.2926865
11
105.5111524
21
58.2926865
0
LINE
8
0
10
105.5111524
20
58.2926865
11
105.5111524
21
40.2926865
0
LINE
8
0
10
79.5111523
20
-16.7073136
11
97.5111523
21
-16.7073136
0
LINE
8
0
10
97.5111523
20
-16.7073136
11
97.5111523
21
1.2926864
0
LINE
8
0
10
97.5111523
20
1.2926864
11
79.5111523
21
1.2926864
0
LINE
8
0
10
79.5111523
20
1.2926864
11
79.5111523
21
-16.7073136
0
LINE
8
0
10
100.595307
20
-17.647869
11
117.5097742
21
-23.8042316
0
LINE
8
0
10
117.5097742
20
-23.8042316
11
123.6661368
21
-6.8897644
0
LINE
8
0
10
123.6661368
20
-6.8897644
11
106.7516696
21
-0.7334018
0
LINE
8
0
10
106.7516696
20
-0.7334018
11
100.595307
21
-17.647869
0
LINE
8
0
10
107.0936897
20
0.2062908
11
124.0081569
21
-5.9500718
0
LINE
8
0
10
124.0081569
20
-5.9500718
11
130.1645195
21
10.9643954
0
LINE
8
0
10
130.1645195
20
10.9643954
11
113.2500523
21
17.120758
0
LINE
8
0
10
113.2500523
20
17.120758
11
107.0936897
21
0.2062908
0
LINE
8
0
10
120.4769511
20
-25.0661807
11
134.2657511
21
-36.6363577
0
LINE
8
0
10
134.2657511
20
-36.6363577
11
145.8359281
21
-22.8475577
0
LINE
8
0
10
145.8359281
20
-22.8475577
11
132.0471281
21
-11.2773807
0
LINE
8
0
10
132.0471281
20
-11.2773807
11
120.4769511
21
-25.0661807
0
LINE
8
0
10
132.6899157
20
-10.5113363
11
146.4787157
21
-22.0815133
0
LINE
8
0
10
146.4787157
20
-22.0815133
11
158.0488927
21
-8.2927133
0
LINE
8
0
10
158.0488927
20
-8.2927133
11
144.2600927
21
3.2774637
0
LINE
8
0
10
144.2600927
20
3.2774637
11
132.6899157
21
-10.5113363
0
ENDSEC
0
EOF