0
SECTION
2
HEADER
9
$INSUNITS
70
4
0
ENDSEC
0
SECTION
2
TABLES
0
TABLE
2
LTYPE
0
LTYPE
72
65
70
64
2
CONTINUOUS
3
______
73
0
40
0
0
ENDTAB
0
TABLE
2
LAYER
0
ENDTAB
0
ENDSEC
0
SECTION
2
ENTITIES
0
LINE
8
0
10
-10.9084675
20
-13.0002053
11
31.9279046
21
-9.2525084
0
LINE
8
0
10
-14.6561644
20
29.8361668
11
-10.9084675
21
-13.0002053
0
LINE
8
0
10
4.2715349
20
31.4921259
11
-14.6561644
21
29.8361668
0
LINE
8
0
10
31.9279046
20
-9.2525084
11
30.9178309
21
2.2926864
0
LINE
8
0
10
26.5111523
20
52.5104172
11
2.6155758
21
50.4198252
0
LINE
8
0
10
2.6155758
20
50.4198252
11
4.2715349
21
31.4921259
0
LINE
8
0
10
30.9178309
20
2.2926864
11
50.5111523
21
2.2926864
0
LINE
8
0
10
50.5111523
20
2.2926864
11
50.5111523
21
7.2926864
0
LINE
8
0
10
45.5111524
20
64.2926864
11
26.5111523
21
64.2926864
0
LINE
8
0
10
26.5111523
20
64.2926864
11
26.5111523
21
52.5104172
0
LINE
8
0
10
50.5111523
20
7.2926864
11
64.5111524
21
7.2926864
0
LINE
8
0
10
69.5111524
20
63.2926864
11
69.5111524
21
69.2926864
0
LINE
8
0
10
69.5111524
20
69.2926864
11
45.5111524
21
69.2926864
0
LINE
8
0
10
45.5111524
20
69.2926864
11
45.5111524
21
64.2926864
0
LINE
8
0
10
64.5111524
20
1.2926864
11
76.5111523
21
1.2926864
0
LINE
8
0
10
64.5111524
20
7.2926864
11
64.5111524
21
1.2926864
0
LINE
8
0
10
88.5111524
20
61.2926864
11
88.5111524
21
63.2926864
0
LINE
8
0
10
88.5111524
20
63.2926864
11
69.5111524
21
63.2926864
0
LINE
8
0
10
100.5111523
20
-0.7073136
11
103.5686316
21
-0.7073136
0
LINE
8
0
10
107.5111523
20
10.124673
11
107.5111523
21
18.2926864
0
LINE
8
0
10
88.5111524
20
61.2926864
11
126.5111524
21
61.2926865
0
LINE
8
0
10
107.5111523
20
18.2926864
11
110.4840661
21
18.2926864
0
LINE
8
0
10
118.8016185
20
18.2926865
11
126.5111524
21
18.2926865
0
LINE
8
0
10
126.5111524
20
18.2926865
11
126.5111524
21
61.2926865
0
LINE
8
0
10
76.5111523
20
-19.7073136
11
97.4821714
21
-19.7073136
0
LINE
8
0
10
100.5111523
20
-9.107669
11
100.5111523
21
-0.7073136
0
LINE
8
0
10
76.5111523
20
1.2926864
11
76.5111523
21
-19.7073136
0
LINE
8
0
10
97.4821714
20
-19.7073136
11
118.5707893
21
-27.3829428
0
LINE
8
0
10
123.0637752
20
-17.3161524
11
134.0096578
21
12.7574128
0
LINE
8
0
10
100.5111523
20
-9.107669
11
103.5686316
21
-0.7073136
0
LINE
8
0
10
134.0096578
20
12.7574128
11
118.8016185
21
18.2926865
0
LINE
8
0
10
110.4840661
20
18.2926864
11
107.5111523
21
10.124673
0
LINE
8
0
10
118.5707893
20
-27.3829428
11
134.6355216
21
-40.8628538
0
LINE
8
0
10
134.6355216
20
-40.8628538
11
162.2753888
21
-7.9229428
0
LINE
8
0
10
123.0637752
20
-17.3161524
11
143.8903222
21
7.5039598
0
LINE
8
0
10
162.2753888
20
-7.9229428
11
143.8903222
21
7.5039598
0
ENDSEC
0
EOF