0
SECTION
2
HEADER
9
$INSUNITS
70
4
0
ENDSEC
0
SECTION
2
TABLES
0
TABLE
2
LTYPE
0
LTYPE
72
65
70
64
2
CONTINUOUS
3
______
73
0
40
0
0
ENDTAB
0
TABLE
2
LAYER
0
ENDTAB
0
ENDSEC
0
SECTION
2
ENTITIES
0
LINE
8
0
10
-10.9084675
20
-13.0002053
11
31.9279046
21
-9.2525084
0
LINE
8
0
10
-14.6561644
20
29.8361668
11
-10.9084675
21
-13.0002053
0
LINE
8
0
10
4.2715349
20
31.4921259
11
-14.6561644
21
29.8361668
0
LINE
8
0
10
31.9279046
20
-9.2525084
11
30.9178309
21
2.2926864
0
LINE
8
0
10
26.5111523
20
52.5104172
11
2.6155758
21
50.4198252
0
LINE
8
0
10
2.6155758
20
50.4198252
11
4.2715349
21
31.4921259
0
LINE
8
0
10
30.9178309
20
2.2926864
11
50.5111523
21
2.2926864
0
LINE
8
0
10
50.5111523
20
2.2926864
11
50.5111523
21
7.2926864
0
LINE
8
0
10
45.5111524
20
64.2926864
11
26.5111523
21
64.2926864
0
LINE
8
0
10
26.5111523
20
64.2926864
11
26.5111523
21
52.5104172
0
LINE
8
0
10
50.5111523
20
7.2926864
11
64.5111524
21
7.2926864
0
LINE
8
0
10
69.5111524
20
63.2926864
11
69.5111524
21
69.2926864
0
LINE
8
0
10
69.5111524
20
69.2926864
11
45.5111524
21
69.2926864
0
LINE
8
0
10
45.5111524
20
69.2926864
11
45.5111524
21
64.2926864
0
LINE
8
0
10
64.5111524
20
1.2926864
11
76.5111523
21
1.2926864
0
LINE
8
0
10
64.5111524
20
7.2926864
11
64.5111524
21
1.2926864
0
LINE
8
0
10
88.5111524
20
61.2926864
11
88.5111524
21
63.2926864
0
LINE
8
0
10
88.5111524
20
63.2926864
11
69.5111524
21
63.2926864
0
LINE
8
0
10
100.5111523
20
-0.7073136
11
103.5686316
21
-0.7073136
0
LINE
8
0
10
107.5111523
20
10.124673
11
107.5111523
21
18.2926864
0
LINE
8
0
10
88.5111524
20
61.2926864
11
126.5111524
21
61.2926865
0
LINE
8
0
10
107.5111523
20
18.2926864
11
110.4840661
21
18.2926864
0
LINE
8
0
10
118.8016185
20
18.2926865
11
126.5111524
21
18.2926865
0
LINE
8
0
10
126.5111524
20
18.2926865
11
126.5111524
21
61.2926865
0
LINE
8
0
10
76.5111523
20
-19.7073136
11
97.4821714
21
-19.7073136
0
LINE
8
0
10
100.5111523
20
-9.107669
11
100.5111523
21
-0.7073136
0
LINE
8
0
10
76.5111523
20
1.2926864
11
76.5111523
21
-19.7073136
0
LINE
8
0
10
97.4821714
20
-19.7073136
11
118.5707893
21
-27.3829428
0
LINE
8
0
10
123.0637752
20
-17.3161524
11
134.0096578
21
12.7574128
0
LINE
8
0
10
100.5111523
20
-9.107669
11
103.5686316
21
-0.7073136
0
LINE
8
0
10
134.0096578
20
12.7574128
11
118.8016185
21
18.2926865
0
LINE
8
0
10
110.4840661
20
18.2926864
11
107.5111523
21
10.124673
0
LINE
8
0
10
118.5707893
20
-27.3829428
11
134.6355216
21
-40.8628538
0
LINE
8
0
10
134.6355216
20
-40.8628538
11
162.2753888
21
-7.9229428
0
LINE
8
0
10
123.0637752
20
-17.3161524
11
143.8903222
21
7.5039598
0
LINE
8
0
10
162.2753888
20
-7.9229428
11
143.8903222
21
7.5039598
0
LINE
8
0
10
-6.3632727
20
-7.5834531
11
7.5834531
21
-6.3632727
0
LINE
8
0
10
7.5834531
20
-6.3632727
11
6.3632727
21
7.5834531
0
LINE
8
0
10
6.3632727
20
7.5834531
11
-7.5834531
21
6.3632727
0
LINE
8
0
10
-7.5834531
20
6.3632727
11
-6.3632727
21
-7.5834531
0
LINE
8
0
10
-8.0192318
20
11.3442462
11
5.927494
21
12.5644266
0
LINE
8
0
10
5.927494
20
12.5644266
11
4.7073136
21
26.5111524
0
LINE
8
0
10
4.7073136
20
26.5111524
11
-9.2394122
21
25.290972
0
LINE
8
0
10
-9.2394122
20
25.290972
11
-8.0192318
21
11.3442462
0
LINE
8
0
10
12.5644266
20
-5.927494
11
26.5111524
21
-4.7073136
0
LINE
8
0
10
26.5111524
20
-4.7073136
11
25.290972
21
9.2394122
0
LINE
8
0
10
25.290972
20
9.2394122
11
11.3442462
21
8.0192318
0
LINE
8
0
10
11.3442462
20
8.0192318
11
12.5644266
21
-5.927494
0
LINE
8
0
10
10.9084675
20
13.0002053
11
24.8551933
21
14.2203857
0
LINE
8
0
10
24.8551933
20
14.2203857
11
23.6350129
21
28.1671115
0
LINE
8
0
10
23.6350129
20
28.1671115
11
9.6882871
21
26.9469311
0
LINE
8
0
10
9.6882871
20
26.9469311
11
10.9084675
21
13.0002053
0
LINE
8
0
10
9.2525084
20
31.9279046
11
23.1992342
21
33.148085
0
LINE
8
0
10
23.1992342
20
33.148085
11
21.9790538
21
47.0948108
0
LINE
8
0
10
21.9790538
20
47.0948108
11
8.032328
21
45.8746304
0
LINE
8
0
10
8.032328
20
45.8746304
11
9.2525084
21
31.9279046
0
LINE
8
0
10
31.5111523
20
7.2926864
11
45.5111523
21
7.2926864
0
LINE
8
0
10
45.5111523
20
7.2926864
11
45.5111523
21
21.2926864
0
LINE
8
0
10
45.5111523
20
21.2926864
11
31.5111523
21
21.2926864
0
LINE
8
0
10
31.5111523
20
21.2926864
11
31.5111523
21
7.2926864
0
LINE
8
0
10
31.5111523
20
26.2926864
11
45.5111523
21
26.2926864
0
LINE
8
0
10
45.5111523
20
26.2926864
11
45.5111523
21
40.2926864
0
LINE
8
0
10
45.5111523
20
40.2926864
11
31.5111523
21
40.2926864
0
LINE
8
0
10
31.5111523
20
40.2926864
11
31.5111523
21
26.2926864
0
LINE
8
0
10
31.5111523
20
45.2926864
11
45.5111523
21
45.2926864
0
LINE
8
0
10
45.5111523
20
45.2926864
11
45.5111523
21
59.2926864
0
LINE
8
0
10
45.5111523
20
59.2926864
11
31.5111523
21
59.2926864
0
LINE
8
0
10
31.5111523
20
59.2926864
11
31.5111523
21
45.2926864
0
LINE
8
0
10
50.5111524
20
12.2926864
11
64.5111524
21
12.2926864
0
LINE
8
0
10
64.5111524
20
12.2926864
11
64.5111524
21
26.2926864
0
LINE
8
0
10
64.5111524
20
26.2926864
11
50.5111524
21
26.2926864
0
LINE
8
0
10
50.5111524
20
26.2926864
11
50.5111524
21
12.2926864
0
LINE
8
0
10
50.5111524
20
31.2926864
11
64.5111524
21
31.2926864
0
LINE
8
0
10
64.5111524
20
31.2926864
11
64.5111524
21
45.2926864
0
LINE
8
0
10
64.5111524
20
45.2926864
11
50.5111524
21
45.2926864
0
LINE
8
0
10
50.5111524
20
45.2926864
11
50.5111524
21
31.2926864
0
LINE
8
0
10
50.5111524
20
50.2926864
11
64.5111524
21
50.2926864
0
LINE
8
0
10
64.5111524
20
50.2926864
11
64.5111524
21
64.2926864
0
LINE
8
0
10
64.5111524
20
64.2926864
11
50.5111524
21
64.2926864
0
LINE
8
0
10
50.5111524
20
64.2926864
11
50.5111524
21
50.2926864
0
LINE
8
0
10
69.5111524
20
6.2926864
11
83.5111524
21
6.2926864
0
LINE
8
0
10
83.5111524
20
6.2926864
11
83.5111524
21
20.2926864
0
LINE
8
0
10
83.5111524
20
20.2926864
11
69.5111524
21
20.2926864
0
LINE
8
0
10
69.5111524
20
20.2926864
11
69.5111524
21
6.2926864
0
LINE
8
0
10
69.5111524
20
25.2926864
11
83.5111524
21
25.2926864
0
LINE
8
0
10
83.5111524
20
25.2926864
11
83.5111524
21
39.2926864
0
LINE
8
0
10
83.5111524
20
39.2926864
11
69.5111524
21
39.2926864
0
LINE
8
0
10
69.5111524
20
39.2926864
11
69.5111524
21
25.2926864
0
LINE
8
0
10
69.5111524
20
44.2926864
11
83.5111524
21
44.2926864
0
LINE
8
0
10
83.5111524
20
44.2926864
11
83.5111524
21
58.2926864
0
LINE
8
0
10
83.5111524
20
58.2926864
11
69.5111524
21
58.2926864
0
LINE
8
0
10
69.5111524
20
58.2926864
11
69.5111524
21
44.2926864
0
LINE
8
0
10
88.5111523
20
4.2926864
11
102.5111523
21
4.2926864
0
LINE
8
0
10
102.5111523
20
4.2926864
11
102.5111523
21
18.2926864
0
LINE
8
0
10
102.5111523
20
18.2926864
11
88.5111523
21
18.2926864
0
LINE
8
0
10
88.5111523
20
18.2926864
11
88.5111523
21
4.2926864
0
LINE
8
0
10
88.5111523
20
23.2926864
11
102.5111523
21
23.2926864
0
LINE
8
0
10
102.5111523
20
23.2926864
11
102.5111523
21
37.2926864
0
LINE
8
0
10
102.5111523
20
37.2926864
11
88.5111523
21
37.2926864
0
LINE
8
0
10
88.5111523
20
37.2926864
11
88.5111523
21
23.2926864
0
LINE
8
0
10
88.5111523
20
42.2926864
11
102.5111523
21
42.2926864
0
LINE
8
0
10
102.5111523
20
42.2926864
11
102.5111523
21
56.2926864
0
LINE
8
0
10
102.5111523
20
56.2926864
11
88.5111523
21
56.2926864
0
LINE
8
0
10
88.5111523
20
56.2926864
11
88.5111523
21
42.2926864
0
LINE
8
0
10
107.5111524
20
23.2926865
11
121.5111524
21
23.2926865
0
LINE
8
0
10
121.5111524
20
23.2926865
11
121.5111524
21
37.2926865
0
LINE
8
0
10
121.5111524
20
37.2926865
11
107.5111524
21
37.2926865
0
LINE
8
0
10
107.5111524
20
37.2926865
11
107.5111524
21
23.2926865
0
LINE
8
0
10
107.5111524
20
42.2926865
11
121.5111524
21
42.2926865
0
LINE
8
0
10
121.5111524
20
42.2926865
11
121.5111524
21
56.2926865
0
LINE
8
0
10
121.5111524
20
56.2926865
11
107.5111524
21
56.2926865
0
LINE
8
0
10
107.5111524
20
56.2926865
11
107.5111524
21
42.2926865
0
LINE
8
0
10
81.5111523
20
-14.7073136
11
95.5111523
21
-14.7073136
0
LINE
8
0
10
95.5111523
20
-14.7073136
11
95.5111523
21
-0.7073136
0
LINE
8
0
10
95.5111523
20
-0.7073136
11
81.5111523
21
-0.7073136
0
LINE
8
0
10
81.5111523
20
-0.7073136
11
81.5111523
21
-14.7073136
0
LINE
8
0
10
103.1587326
20
-16.452524
11
116.3144292
21
-21.240806
0
LINE
8
0
10
116.3144292
20
-21.240806
11
121.1027112
21
-8.0851094
0
LINE
8
0
10
121.1027112
20
-8.0851094
11
107.9470146
21
-3.2968274
0
LINE
8
0
10
107.9470146
20
-3.2968274
11
103.1587326
21
-16.452524
0
LINE
8
0
10
109.6571153
20
1.4016358
11
122.8128119
21
-3.3866462
0
LINE
8
0
10
122.8128119
20
-3.3866462
11
127.6010939
21
9.7690504
0
LINE
8
0
10
127.6010939
20
9.7690504
11
114.4453973
21
14.5573324
0
LINE
8
0
10
114.4453973
20
14.5573324
11
109.6571153
21
1.4016358
0
LINE
8
0
10
123.2946152
20
-24.819667
11
134.0192374
21
-33.8186936
0
LINE
8
0
10
134.0192374
20
-33.8186936
11
143.018264
21
-23.0940714
0
LINE
8
0
10
143.018264
20
-23.0940714
11
132.2936418
21
-14.0950448
0
LINE
8
0
10
132.2936418
20
-14.0950448
11
123.2946152
21
-24.819667
0
LINE
8
0
10
135.5075798
20
-10.2648226
11
146.232202
21
-19.2638492
0
LINE
8
0
10
146.232202
20
-19.2638492
11
155.2312286
21
-8.539227
0
LINE
8
0
10
155.2312286
20
-8.539227
11
144.5066064
21
0.4597996
0
LINE
8
0
10
144.5066064
20
0.4597996
11
135.5075798
21
-10.2648226
0
CIRCLE
8
0
10
-23.3229679
20
37.1084784
40
3
0
CIRCLE
8
0
10
-18.1807791
20
-21.6670088
40
3
0
CIRCLE
8
0
10
57.5111524
20
77.2926864
40
3
0
CIRCLE
8
0
10
134.5111524
20
69.2926865
40
3
0
CIRCLE
8
0
10
40.5947081
20
-16.52482
40
3
0
CIRCLE
8
0
10
68.5111523
20
-27.7073136
40
3
0
CIRCLE
8
0
10
135.6215763
20
-52.1335103
40
3
0
CIRCLE
8
0
10
173.5460453
20
-6.9368881
40
3
0
ENDSEC
0
EOF